<svg width="780" height="700" viewBox="0 0 780 700" fill="none" xmlns="http://www.w3.org/2000/svg">
<path d="M327.698 0.45162C342.101 1.08977 356.475 2.6606 370.819 4.01543C401.823 7.42217 433.121 11.31 463.595 18.0743C475.682 21.1276 487.632 24.8191 499.641 28.1767C549.777 42.8247 600.09 58.1304 649.205 75.9004C666.454 82.2721 683.476 88.7125 700.087 96.6452C706.886 99.9832 713.989 103.596 720.053 108.151C726.42 113.031 731.532 120.021 735.682 126.825C744.709 141.816 750.88 158.222 756.492 174.715C766.814 206.142 774.064 238.098 780 270.605V271.832C775.987 298.781 777.792 327.861 772.455 354.496C768.315 375.86 759.759 395.662 748.476 414.188C736.977 433.028 722.996 450.798 708.495 467.41C688.568 490.147 667.346 511.177 645.34 531.872C591.77 581.795 534.668 628.468 477.232 673.856C473.583 676.585 470.374 679.805 466.391 681.7C447.455 691.115 426.204 696.043 405.247 698.086C384.466 700.137 363.205 699.578 342.445 697.467C299.235 692.971 256.919 682.024 216.065 667.445C170.423 650.98 125.84 629.696 85.4664 602.687C65.8928 589.374 46.4468 574.098 30.8762 556.181C22.929 546.962 15.4037 536.251 11.3124 524.715C3.08071 500.269 -0.569098 474.439 0.225619 448.668C1.27543 415.15 9.58562 381.338 24.2339 351.168C31.9064 337.708 40.1577 324.543 48.1049 311.25C100.801 224.275 153.655 137.408 206.499 50.5217C208.677 47.007 210.315 43.5905 213.278 40.6353C221.785 32.1038 231.586 25.2314 242.114 19.4194C268.202 5.12483 298.127 -0.5596 327.698 0.45162Z" fill="#43A583"/>
</svg>
