<svg width="220" height="140" viewBox="0 0 220 140" fill="none" xmlns="http://www.w3.org/2000/svg" role="img" aria-labelledby="title desc">
  <title id="title">Email us instead illustration</title>
  <desc id="desc">A dark inbox message and paper planes in Moonlight green.</desc>
  <defs>
    <linearGradient id="g" x1="36" y1="33" x2="175" y2="109" gradientUnits="userSpaceOnUse">
      <stop stop-color="#123F34"/>
      <stop offset="1" stop-color="#071513"/>
    </linearGradient>
    <filter id="shadow" x="0" y="0" width="220" height="140" filterUnits="userSpaceOnUse" color-interpolation-filters="sRGB">
      <feDropShadow dx="0" dy="12" stdDeviation="12" flood-color="#000" flood-opacity="0.24"/>
    </filter>
  </defs>
  <path d="M36 111c-19-8-21-31 0-41 18-9 18-27 37-35 22-9 41 10 58 17 18 8 48-5 58 18 9 21-12 38-35 42-34 6-81 15-118-1Z" fill="#0D2A24" opacity=".9"/>
  <g filter="url(#shadow)">
    <rect x="42" y="41" width="128" height="70" rx="15" fill="url(#g)" stroke="#1B3934"/>
    <path d="M50 52l56 39 56-39" stroke="#18F0AA" stroke-width="5" stroke-linecap="round" stroke-linejoin="round"/>
    <path d="M51 101l38-30M161 101l-38-30" stroke="#F7F7F0" stroke-width="4" stroke-linecap="round" opacity=".9"/>
    <rect x="72" y="59" width="30" height="5" rx="2.5" fill="#F7F7F0"/>
    <rect x="72" y="70" width="52" height="5" rx="2.5" fill="#A8B2AF"/>
  </g>
  <path d="M166 22l42 18-28 14-14-32Z" fill="#18F0AA"/>
  <path d="M180 54l-1 23-13-55" stroke="#071513" stroke-width="4" stroke-linecap="round" stroke-linejoin="round"/>
  <path d="M24 47l38 10-32 18-6-28Z" fill="#18F0AA" opacity=".72"/>
  <path d="M30 75l8 13 24-31" stroke="#071513" stroke-width="3" stroke-linecap="round" stroke-linejoin="round"/>
</svg>
