<svg width="220" height="140" viewBox="0 0 220 140" fill="none" xmlns="http://www.w3.org/2000/svg" role="img" aria-labelledby="title desc">
  <title id="title">View plans illustration</title>
  <desc id="desc">Pricing cards and a selection cursor in Moonlight green.</desc>
  <defs>
    <linearGradient id="g" x1="39" y1="29" x2="173" y2="116" gradientUnits="userSpaceOnUse">
      <stop stop-color="#123F34"/>
      <stop offset="1" stop-color="#071513"/>
    </linearGradient>
    <filter id="shadow" x="0" y="0" width="220" height="140" filterUnits="userSpaceOnUse" color-interpolation-filters="sRGB">
      <feDropShadow dx="0" dy="12" stdDeviation="12" flood-color="#000" flood-opacity="0.24"/>
    </filter>
  </defs>
  <path d="M51 113c-22-6-30-24-15-40 15-17 36-9 50-31 18-29 58-21 75-2 18 20 40 9 44 30 5 23-20 38-50 43-35 6-68 10-104 0Z" fill="#0D2A24" opacity=".9"/>
  <g filter="url(#shadow)">
    <rect x="42" y="32" width="135" height="84" rx="16" fill="url(#g)" stroke="#1B3934"/>
    <rect x="55" y="48" width="34" height="50" rx="8" fill="#0B1716" stroke="#203832"/>
    <rect x="96" y="42" width="42" height="62" rx="10" fill="#123F34" stroke="#18F0AA" stroke-width="3"/>
    <rect x="145" y="48" width="24" height="50" rx="8" fill="#0B1716" stroke="#203832"/>
    <path d="M63 62h18M63 74h14M63 88h18" stroke="#F7F7F0" stroke-width="4" stroke-linecap="round"/>
    <path d="M106 60h21M106 74h19M106 89h21" stroke="#F7F7F0" stroke-width="4" stroke-linecap="round"/>
    <path d="M153 64h9M153 78h9M153 91h9" stroke="#F7F7F0" stroke-width="4" stroke-linecap="round"/>
  </g>
  <g>
    <path d="M164 87l36 15-18 6-8 18-10-39Z" fill="#18F0AA"/>
    <path d="M174 99l8 9" stroke="#071513" stroke-width="4" stroke-linecap="round"/>
  </g>
  <circle cx="94" cy="27" r="7" fill="#18F0AA"/>
  <path d="M94 14v7M94 33v7M81 27h7M100 27h7" stroke="#18F0AA" stroke-width="4" stroke-linecap="round"/>
</svg>
