<svg width="220" height="140" viewBox="0 0 220 140" fill="none" xmlns="http://www.w3.org/2000/svg" role="img" aria-labelledby="title desc">
  <title id="title">30-minute intro call illustration</title>
  <desc id="desc">Dark themed video call window with a clock and chat bubble in Moonlight green.</desc>
  <defs>
    <linearGradient id="g" x1="38" y1="24" x2="177" y2="112" gradientUnits="userSpaceOnUse">
      <stop stop-color="#123F34"/>
      <stop offset="1" stop-color="#071513"/>
    </linearGradient>
    <filter id="shadow" x="0" y="0" width="220" height="140" filterUnits="userSpaceOnUse" color-interpolation-filters="sRGB">
      <feDropShadow dx="0" dy="12" stdDeviation="12" flood-color="#000" flood-opacity="0.24"/>
    </filter>
  </defs>
  <path d="M42 104C22 100 14 88 22 72c8-16 25-16 35-35 13-25 51-15 65-4 19 15 45 2 60 19 16 18 3 43-18 48-20 5-30 24-56 18-26-6-45-10-66-14Z" fill="#0D2A24" opacity=".9"/>
  <g filter="url(#shadow)">
    <rect x="36" y="28" width="142" height="82" rx="15" fill="url(#g)" stroke="#1B3934"/>
    <rect x="47" y="39" width="120" height="16" rx="8" fill="#F7F7F0"/>
    <circle cx="58" cy="47" r="3" fill="#A8B2AF"/>
    <circle cx="69" cy="47" r="3" fill="#A8B2AF"/>
    <rect x="82" y="44" width="52" height="6" rx="3" fill="#DDE4E2"/>
    <rect x="54" y="65" width="52" height="30" rx="7" fill="#0B1716" stroke="#203832"/>
    <path d="M62 84l11 9 25-28" stroke="#18F0AA" stroke-width="5" stroke-linecap="round" stroke-linejoin="round"/>
    <path d="M62 75h30" stroke="#F7F7F0" stroke-width="5" stroke-linecap="round"/>
    <rect x="116" y="65" width="42" height="10" rx="5" fill="#F7F7F0"/>
    <rect x="116" y="82" width="45" height="14" rx="7" fill="#F7F7F0"/>
    <circle cx="153" cy="89" r="6" fill="#18F0AA"/>
  </g>
  <g>
    <path d="M176 32c14 0 25 11 25 25s-11 25-25 25h-4l-12 11 3-16a25 25 0 0 1 13-45Z" fill="#18F0AA"/>
    <path d="M176 43v14l10 6" stroke="#071513" stroke-width="5" stroke-linecap="round" stroke-linejoin="round"/>
    <circle cx="176" cy="57" r="18" stroke="#071513" stroke-width="5"/>
  </g>
</svg>
