<svg width="1200" height="900" viewBox="0 0 1200 900" fill="none" xmlns="http://www.w3.org/2000/svg">
  <defs>
    <linearGradient id="shadow" x1="600" y1="620" x2="600" y2="790" gradientUnits="userSpaceOnUse">
      <stop stop-color="#0B1112" stop-opacity="0.22"/>
      <stop offset="1" stop-color="#0B1112" stop-opacity="0"/>
    </linearGradient>
    <linearGradient id="screenGlow" x1="441" y1="132" x2="918" y2="532" gradientUnits="userSpaceOnUse">
      <stop stop-color="#0C1517"/>
      <stop offset="1" stop-color="#0F1C1D"/>
    </linearGradient>
    <linearGradient id="tabletGlow" x1="248" y1="305" x2="520" y2="675" gradientUnits="userSpaceOnUse">
      <stop stop-color="#0D1719"/>
      <stop offset="1" stop-color="#0F2021"/>
    </linearGradient>
    <linearGradient id="heroCard" x1="0" y1="0" x2="1" y2="1">
      <stop stop-color="#17F2A6"/>
      <stop offset="1" stop-color="#43A583"/>
    </linearGradient>
    <filter id="softShadow" x="120" y="70" width="980" height="740" filterUnits="userSpaceOnUse" color-interpolation-filters="sRGB">
      <feFlood flood-opacity="0" result="BackgroundImageFix"/>
      <feColorMatrix in="SourceAlpha" type="matrix" values="0 0 0 0 0 0 0 0 0 0 0 0 0 0 0 0 0 0 127 0" result="hardAlpha"/>
      <feOffset dy="36"/>
      <feGaussianBlur stdDeviation="28"/>
      <feColorMatrix type="matrix" values="0 0 0 0 0.03 0 0 0 0 0.08 0 0 0 0 0.08 0 0 0 0.28 0"/>
      <feBlend mode="normal" in2="BackgroundImageFix" result="effect1_dropShadow_1_1"/>
      <feBlend mode="normal" in="SourceGraphic" in2="effect1_dropShadow_1_1" result="shape"/>
    </filter>
  </defs>

  <ellipse cx="760" cy="776" rx="255" ry="52" fill="url(#shadow)"/>
  <ellipse cx="372" cy="742" rx="160" ry="34" fill="url(#shadow)"/>

  <g filter="url(#softShadow)">
    <g transform="rotate(-9 760 402)">
      <rect x="420" y="120" width="560" height="378" rx="24" fill="#1E2325"/>
      <rect x="442" y="142" width="516" height="334" rx="16" fill="url(#screenGlow)" stroke="#FFFFFF" stroke-opacity="0.08" stroke-width="2"/>
      <rect x="442" y="142" width="516" height="38" rx="16" fill="#F4F4F1"/>
      <circle cx="468" cy="161" r="5" fill="#C9CFD1"/>
      <circle cx="487" cy="161" r="5" fill="#C9CFD1"/>
      <circle cx="506" cy="161" r="5" fill="#C9CFD1"/>
      <rect x="530" y="152" width="224" height="18" rx="9" fill="#DDE2E4"/>
      <rect x="776" y="152" width="138" height="18" rx="9" fill="#151B1D" fill-opacity="0.12"/>

      <rect x="478" y="206" width="166" height="212" rx="18" fill="url(#heroCard)"/>
      <path d="M500 266C530 232 598 226 623 254V382H500V266Z" fill="#0B1112" fill-opacity="0.16"/>
      <rect x="500" y="226" width="86" height="12" rx="6" fill="#07291E" fill-opacity="0.28"/>
      <rect x="500" y="248" width="120" height="18" rx="9" fill="#FFFFFF" fill-opacity="0.92"/>
      <rect x="500" y="276" width="102" height="10" rx="5" fill="#F6FFFB" fill-opacity="0.78"/>
      <rect x="500" y="296" width="92" height="10" rx="5" fill="#F6FFFB" fill-opacity="0.6"/>
      <rect x="500" y="340" width="72" height="16" rx="8" fill="#0B1112" fill-opacity="0.18"/>
      <rect x="580" y="340" width="28" height="16" rx="8" fill="#FFFFFF" fill-opacity="0.68"/>
      <circle cx="598" cy="384" r="10" fill="#0B1112" fill-opacity="0.18"/>
      <path d="M595 380L601 384L595 388" stroke="#FFFFFF" stroke-width="2" stroke-linecap="round" stroke-linejoin="round"/>

      <rect x="670" y="206" width="244" height="118" rx="18" fill="#11191B" stroke="#FFFFFF" stroke-opacity="0.06"/>
      <rect x="698" y="232" width="88" height="12" rx="6" fill="#FFFFFF"/>
      <rect x="698" y="254" width="154" height="10" rx="5" fill="#FFFFFF" fill-opacity="0.48"/>
      <rect x="698" y="272" width="126" height="10" rx="5" fill="#FFFFFF" fill-opacity="0.32"/>
      <path d="M698 301L733 275L764 289L797 248L832 268L866 226L894 246" stroke="#17F2A6" stroke-width="5" stroke-linecap="round" stroke-linejoin="round"/>
      <circle cx="733" cy="275" r="5" fill="#17F2A6"/>
      <circle cx="797" cy="248" r="5" fill="#17F2A6"/>
      <circle cx="866" cy="226" r="5" fill="#17F2A6"/>

      <rect x="670" y="340" width="112" height="78" rx="16" fill="#11191B" stroke="#FFFFFF" stroke-opacity="0.06"/>
      <rect x="698" y="360" width="32" height="32" rx="10" fill="#17F2A6" fill-opacity="0.18"/>
      <path d="M707 377H721" stroke="#17F2A6" stroke-width="4" stroke-linecap="round"/>
      <path d="M714 370V384" stroke="#17F2A6" stroke-width="4" stroke-linecap="round"/>
      <rect x="744" y="364" width="20" height="10" rx="5" fill="#FFFFFF"/>
      <rect x="744" y="380" width="16" height="8" rx="4" fill="#FFFFFF" fill-opacity="0.5"/>

      <rect x="802" y="340" width="112" height="78" rx="16" fill="#11191B" stroke="#FFFFFF" stroke-opacity="0.06"/>
      <rect x="828" y="362" width="60" height="12" rx="6" fill="#FFFFFF"/>
      <rect x="828" y="382" width="48" height="10" rx="5" fill="#FFFFFF" fill-opacity="0.5"/>
      <path d="M828 396H880" stroke="#43A583" stroke-width="4" stroke-linecap="round"/>

      <path d="M616 522H784" stroke="#1E2325" stroke-width="28" stroke-linecap="round"/>
      <path d="M694 518L667 632H812L784 518" fill="#B8BABB"/>
      <path d="M651 646C651 636.059 659.059 628 669 628H810C819.941 628 828 636.059 828 646V648H651V646Z" fill="#D9DDDD"/>
    </g>

    <g transform="rotate(-10 350 510)">
      <rect x="206" y="280" width="246" height="358" rx="26" fill="#040708"/>
      <rect x="222" y="298" width="214" height="322" rx="18" fill="url(#tabletGlow)"/>
      <rect x="222" y="298" width="214" height="34" rx="18" fill="#F4F4F1"/>
      <circle cx="244" cy="315" r="4" fill="#CAD1D2"/>
      <circle cx="259" cy="315" r="4" fill="#CAD1D2"/>
      <circle cx="274" cy="315" r="4" fill="#CAD1D2"/>
      <rect x="292" y="308" width="96" height="14" rx="7" fill="#DDE2E4"/>
      <rect x="246" y="352" width="166" height="104" rx="18" fill="url(#heroCard)"/>
      <rect x="264" y="370" width="76" height="10" rx="5" fill="#052216" fill-opacity="0.3"/>
      <rect x="264" y="388" width="112" height="16" rx="8" fill="#FFFFFF"/>
      <rect x="264" y="414" width="92" height="9" rx="4.5" fill="#FFFFFF" fill-opacity="0.55"/>
      <rect x="264" y="430" width="70" height="9" rx="4.5" fill="#FFFFFF" fill-opacity="0.35"/>
      <circle cx="380" cy="406" r="20" fill="#0B1112" fill-opacity="0.15"/>
      <path d="M374 406H386" stroke="#FFFFFF" stroke-width="3" stroke-linecap="round"/>
      <path d="M380 400V412" stroke="#FFFFFF" stroke-width="3" stroke-linecap="round"/>
      <rect x="246" y="476" width="166" height="118" rx="18" fill="#10191A" stroke="#FFFFFF" stroke-opacity="0.06"/>
      <rect x="264" y="496" width="68" height="10" rx="5" fill="#FFFFFF"/>
      <rect x="264" y="514" width="108" height="8" rx="4" fill="#FFFFFF" fill-opacity="0.42"/>
      <path d="M264 555L286 535L308 548L334 522L358 538L392 510" stroke="#17F2A6" stroke-width="4" stroke-linecap="round" stroke-linejoin="round"/>
      <circle cx="334" cy="522" r="4" fill="#17F2A6"/>
      <circle cx="392" cy="510" r="4" fill="#17F2A6"/>
      <circle cx="330" cy="609" r="10" fill="#0C1112"/>
      <circle cx="330" cy="609" r="6" fill="#F3F6F6"/>
    </g>
  </g>
</svg>
