<svg width="1280" height="210" viewBox="0 0 1280 210" fill="none" xmlns="http://www.w3.org/2000/svg">
<path d="M487.183 45.9963C529.527 57.3672 545.969 41.4217 575.276 39.1934C638.63 34.4754 759.169 44.8668 821.5 40.9303C846.23 39.4448 814.115 23.0522 838.69 21.6428C1043 39.1934 1044.28 10.2383 1144.86 5.30285C1180.18 3.59654 1215.05 1.94377 1249.1 0.669174C1263.04 0.166093 1209.04 25.9929 1221.5 25.8682C1234.58 25.7568 1313.7 -0.0287606 1322.3 0.642072C1340.99 2.14091 1353.87 4.42869 1365.62 6.83227C1387.24 11.4769 1272.31 40.3638 1285 45.9963L1415.32 22.6511C1407.6 28.8816 1411.79 34.5328 1401.36 40.9303C1393.29 46.037 1376.17 51.5948 1353.46 57.3672C1330.32 63.2419 1278.41 68.2906 1249.1 74.2325C1208.82 82.3794 1189.54 91.4422 1144.98 99.5335C1057 77.4455 937.957 114.152 821.5 133.5C814.097 134.698 790.384 160.456 782.285 161.541C743.793 166.781 700.496 171.505 657.748 175.586C615.361 179.638 584.92 172.392 542.5 175.586C454.21 182.213 428 161.541 296 195.176C246.5 215.5 211.396 207.33 128.5 208.842C88.307 209.531 105.102 187.387 73 186.432C56.614 185.929 -140.953 210.495 -149.508 208.842C-166.742 205.265 -174.646 200.603 -173.476 195.176C-171.922 188.116 -57.3745 170.29 -28 161.541C-12.5732 157.439 1.00936 151.616 17 147.5C123.052 120.447 134.282 104.506 240.636 77.4455C245.021 76.3438 248.306 75.3566 254.303 74.2325C271.519 70.9958 302 57.3672 350.5 74.2323C406 74.2323 426.796 50.9555 487.183 45.9963Z" fill="#43A583"/>
</svg>
