<svg version="1.2" xmlns="http://www.w3.org/2000/svg" viewBox="0 0 800 800" width="800" height="800">
	<style>
		.s0 { fill: #17f2a6 } 
	</style>
	<path class="s0" d="m711.11 230.89v188.89c0 0-40.33 7.89-48.67 9-8.33 1.11-34.22 9.44-53.11-8.67-29.11-28.44-132.33-131.22-132.33-131.22-3.22-2.62-6.84-4.72-10.72-6.2-3.88-1.49-7.97-2.36-12.12-2.57-4.15-0.2-8.31 0.25-12.32 1.34-4 1.09-7.81 2.81-11.28 5.1-26.23 13.77-65.23 34.11-81.45 42-5.47 3.19-11.66 4.95-18 5.1-6.33 0.16-12.6-1.3-18.22-4.23-5.61-2.93-10.4-7.24-13.9-12.52-3.49-5.29-5.59-11.37-6.1-17.69 0.18-3.57 0.85-7.11 2.02-10.5 1.16-3.39 2.79-6.59 4.84-9.53 2.06-2.93 4.51-5.56 7.3-7.81 2.78-2.25 5.87-4.1 9.17-5.49 37-22.22 115.11-66.67 147.67-83.56 19.78-11.11 34-11.11 61.22 11.11 33.45 28.78 63.78 54 63.78 54q2.69 1.93 5.74 3.23 3.04 1.3 6.29 1.92 3.25 0.61 6.56 0.52 3.31-0.09 6.52-0.89c37.44-7.78 97.11-21.33 97.11-21.33zm-411.11 319.11c2.52-5.77 3.34-12.14 2.39-18.36-0.95-6.23-3.65-12.05-7.77-16.81-4.13-4.75-9.52-8.24-15.55-10.06-6.03-1.82-12.45-1.89-18.51-0.21 0.91-2.84 1.45-5.78 1.61-8.75 0.15-2.98-0.09-5.96-0.71-8.87-0.62-2.92-1.62-5.73-2.97-8.39-1.36-2.65-3.05-5.11-5.05-7.33-2.17-2.07-4.59-3.85-7.22-5.29-2.63-1.45-5.43-2.55-8.34-3.28-2.91-0.73-5.9-1.07-8.9-1.03-3 0.04-5.98 0.46-8.87 1.27 0.91-2.84 1.44-5.78 1.59-8.76 0.14-2.98-0.1-5.96-0.73-8.88-0.64-2.91-1.65-5.73-3.01-8.38-1.36-2.65-3.07-5.11-5.07-7.31-3.57-3.3-7.74-5.87-12.28-7.58-4.55-1.7-9.38-2.51-14.24-2.38-4.85 0.14-9.63 1.21-14.08 3.16-4.44 1.96-8.47 4.75-11.85 8.24-15.33 14.67-25.22 41.33-11.11 57.11 14.11 15.78 29.34 6.11 41.34 3.33-3.34 11.89-13.34 23-1 38.56 12.33 15.56 29.33 6.11 41.33 3.33-3.33 11.89-12.89 24-1.11 38.45 11.78 14.44 31.55 6.78 44.44 2.78-5 12.77-15.66 26.55-2 42.11 13.67 15.55 45.34 8.33 60.78-6.45 3.63-3.2 6.59-7.08 8.72-11.42 2.13-4.34 3.39-9.06 3.7-13.89 0.31-4.83-0.33-9.67-1.89-14.25-1.56-4.57-4.01-8.8-7.2-12.44-2.33-2.31-4.98-4.28-7.87-5.85-2.88-1.58-5.97-2.75-9.17-3.47-3.21-0.72-6.5-1-9.78-0.81-3.28 0.19-6.52 0.83-9.62 1.91zm281.67-98l-119.23-118.67c-2.74-2.56-5.84-4.72-9.19-6.41-3.36-1.68-6.94-2.87-10.64-3.54-3.69-0.67-7.46-0.8-11.2-0.39-3.73 0.4-7.39 1.34-10.85 2.79-16.67 7.33-38.12 17.33-54.34 24.89q-4.17 2.48-8.59 4.51-4.42 2.02-9.03 3.57-4.61 1.54-9.35 2.58-4.75 1.03-9.58 1.56c-13.56 0.13-26.78-4.18-37.66-12.27-10.88-8.09-18.81-19.51-22.59-32.53-3.77-13.02-3.19-26.92 1.67-39.57 4.86-12.66 13.72-23.37 25.24-30.52 25.89-17.67 82.45-48 82.45-48-3.55-3.73-7.49-7.07-11.75-9.96-4.26-2.88-8.82-5.3-13.6-7.22-4.78-1.91-9.76-3.3-14.83-4.15-5.08-0.85-10.24-1.15-15.38-0.89-38 0-117.55 52.22-117.55 52.22-4.2 2.19-8.63 3.9-13.21 5.09-4.58 1.19-9.28 1.85-14.01 1.97-4.74 0.13-9.47-0.29-14.1-1.23-4.64-0.95-9.16-2.42-13.46-4.39l-62-21.55v215.55c0 0 17.67 5.12 33.33 11.12q1.33-3.88 3.1-7.58 1.78-3.69 3.96-7.16 2.19-3.47 4.77-6.65 2.58-3.19 5.51-6.06c6.26-6.01 13.61-10.78 21.66-14.04 8.04-3.27 16.63-4.98 25.31-5.04 8.69-0.07 17.3 1.52 25.39 4.68 8.09 3.15 15.51 7.81 21.86 13.73q2.66 2.75 4.95 5.82 2.29 3.07 4.18 6.4 1.88 3.33 3.33 6.87 1.44 3.55 2.43 7.25 3.6 1.12 7.03 2.67 3.44 1.56 6.65 3.53 3.22 1.96 6.17 4.31 2.95 2.35 5.59 5.04 2.67 2.8 4.96 5.92 2.29 3.13 4.16 6.51 1.88 3.39 3.29 7 1.42 3.6 2.37 7.35c5.06 1.57 9.89 3.79 14.37 6.62 4.48 2.82 8.57 6.21 12.18 10.1 3.6 3.88 6.68 8.22 9.15 12.9 2.48 4.68 4.34 9.66 5.52 14.83q3.77 1.07 7.37 2.62 3.59 1.56 6.95 3.57 3.37 2.01 6.44 4.45 3.07 2.43 5.8 5.24c3.39 3.56 6.36 7.49 8.84 11.74 2.48 4.24 4.45 8.76 5.87 13.47 1.42 4.7 2.29 9.55 2.58 14.46 0.29 4.91 0.01 9.83-0.85 14.67-0.86 4.84 8.89 10 14.33 15.44 5.14 5.12 12.09 8 19.34 8 7.25 0 14.2-2.88 19.33-8 5.12-5.13 8-12.08 8-19.33 0-7.25-2.88-14.2-8-19.33-5.12-5.14 22.22 27.55 47.56 11.11 22.22-15.56 18.77-34 8.22-44.45 3.22 3.84 7.22 6.95 11.73 9.13 4.51 2.17 9.44 3.37 14.44 3.51 5.01 0.13 9.99-0.79 14.62-2.72 4.62-1.93 8.78-4.82 12.21-8.47 2.36-2.4 4.26-5.21 5.6-8.3 1.34-3.09 2.1-6.39 2.23-9.76 0.13-3.36-0.36-6.72-1.45-9.9-1.1-3.18-2.77-6.14-4.94-8.71-2.17-2.57 14.78 20.11 44.45 1.33 21-17.77 11.11-38.11 0-48.77z"/>
</svg>