<svg version="1.2" xmlns="http://www.w3.org/2000/svg" viewBox="0 0 975 975" width="800" height="800">
	<style>
		.s0 { fill: #17f2a6 } 
	</style>
	<path class="s0" d="m752.57 550.48c-5.33-15.24-19.05-24.77-35.05-24.77h-24.19v-438.09c0-44.6-35.39-80-80-80h-430.47c-47.36 0-87.62 40.27-87.62 87.62v697.14c0 45.33 41.71 83.81 86.66 83.81h435.1c4.6 0 8.65 3.75 8.31 8.34-0.37 4.82-4.4 6.9-9.12 6.9h-173.33l132.38 76.19h304.76zm-352.38 288.38c-12.19 0-21.33-9.14-21.33-21.33-0.01-11.6 9.74-21.34 21.34-21.34 12.18 0.01 21.32 9.15 21.32 21.34-0.38 12.19-9.14 21.33-21.33 21.33zm236-313.14h-74.86c-20.19 0-37.33 17.9-37.33 38.09 0 20.19 17.14 38.1 37.33 38.1h75.43v160h-480.57v-643.81h480zm-241.39-12c90.15 0 163.81-73.18 163.81-163.81 0-90.63-73.18-163.81-163.81-163.81-90.63 0-163.32 73.67-163.32 164.29 0 90.15 73.18 163.33 163.32 163.33zm-9.05-149.92c-30.04-10.5-48.78-25.69-48.78-52.66 0-24.88 16.47-44.43 46.68-50.56v-26.98h22.62v25.68c18.74 0 32.31 3.88 42.32 9.21l-9.2 32.31c-7.44-3.07-19.55-8.24-36.19-8.24-16.64 0-25.69 8.24-25.69 16.48 0 11.3 10.5 15.66 33.12 24.88 30.85 11.3 45.23 26.98 45.23 52.66 0 25.69-15.67 45.23-48.79 52.66v25.69h-22.61v-24.88c-19.55 0-39.26-5.17-48.79-10.5l8.24-33.12c10.5 5.17 26.98 11.31 44.42 11.31 18.74 0 27.95-8.24 27.95-19.55 0-11.3-8.88-15.99-30.53-24.39z"/>
</svg>