<svg version="1.2" xmlns="http://www.w3.org/2000/svg" viewBox="0 0 800 800" width="800" height="800">
	<style>
		.s0 { fill: #17f2a6 } 
	</style>
	<path class="s0" d="m735.47 31.25l-160.16 46.58 64.85-43.89c-40.94 9.25-92.66 27.34-157.66 56.54l-106.09 110.61 37.65-77.26c-36.4 20.25-75 46.8-112.19 77.89l-24.68 100.47-5.32-74.38c-36.71 33.75-71.25 71.25-99.84 110.78-30.05 41.41-53.53 85.16-65.3 128.75l-43.93-29.37c3.93 37.03 16.11 69.22 36.07 98.75l-52.53-16.09c11.94 36.71 31.46 60.46 64.46 79.68-18.49 52.03-27.16 106.41-36.47 160.63l28.75 4.84c33.34-332.34 268.64-544.22 481.29-638.09l10.79 27.15c-190.16 85.16-337.97 228.91-415.32 436.1 28.28 0.15 55.94-3.28 81.57-9.85l7.65-95.15 20.47 86.72c17.03-6.25 32.66-13.75 46.56-22.5l-32.34-67.97 51.25 54.37c12.5-10 22.81-21.25 30.62-33.59 47.5-74.22 97.19-147.97 195-209.69l-71.4-25.31 109.53 3.28c17.81-9.06 36.56-20.16 50.78-30.62l-77.66-6.25 116.72-27.5c9.07-9.07 17.5-18.6 25.16-28.13 27.03-34.28 45.31-69.97 40.94-102.42-2.03-16.24-11.72-31.5-27.5-40.05-3.91-2.03-8.13-3.83-11.72-5.03z"/>
</svg>