<svg width="89" height="35" viewBox="0 0 89 35" fill="none" xmlns="http://www.w3.org/2000/svg">
<path d="M29.3 10.5C29.9 11.4 29.7 12.3 29 12.7C28.2 13.1 27.1 12.7 26.6 11.8C26.1 10.9 26.3 10 27 9.6C27.8 9.2 28.8 9.6 29.3 10.5Z" fill="#43A583"/>
<path d="M11.8 19.4C11.5 18.5 11.1 17.5 10.9 16.5C10.6 14.8 11.6 13.2 13.2 12.8C14.8 12.4 16.4 13.2 17.2 14.8C17.6 15.9 18 16.9 18.7 17.8C19.2 18.5 20 19.1 20.9 19.5C22.8 20.3 24.9 20.5 27 20.1C27.3 20.1 27.6 20.1 28 20.2C27.9 20.5 27.9 20.9 27.7 21.2C26.4 23.2 24.5 24.3 22.2 24.5C17.8 24.8 14.3 23.3 11.8 19.4Z" fill="#43A583"/>
<path fill-rule="evenodd" clip-rule="evenodd" d="M31.1 30.8C25.5 33.8 19.1 35.1 12.3 33.3C8.89997 32.4 6.09997 30.7 3.89997 28C0.599972 24 -2.83122e-05 19.4 1.69997 14.6C3.59997 8.89999 7.69997 5.3 13 2.8C15.9 1.4 19 0.699996 22.2 0.499996C23.8 0.399996 25.4 0.0999972 27 0.199997C30.1 0.299997 33 1.2 35.7 2.9C41.4 6.5 43.7 12.8 41.5 19.2C39.7 24.3 36.2 27.8 31.1 30.8ZM14.8 7.59999C14.8666 7.66666 14.9 7.73333 14.9 7.8C14 8.4 13.1 9 12.2 9.7C9.99997 11.5 8.09997 13.6 7.09997 16.3C5.59997 20.3 6.79997 24.1 10.4 26.3C11.9 27.2 13.6 27.9 15.2 28.2C20.7 29.3 25.8 27.9 30.4 24.9C33.2 23.1 35.3 20.7 36.5 17.6C37.8 13.9 36.8 10.3 33.8 8C30.1 5.2 25.8 4.7 21.5 5.3C19.2 5.6 17 6.79999 14.8 7.59999Z" fill="#43A583"/>
<path d="M59.8 10.5C59.3 11.4 59.5 12.3 60.2 12.7C60.9 13.1 62.1 12.7 62.6 11.8C63.1 10.9 62.9 10 62.2 9.6C61.4 9.2 60.4 9.6 59.8 10.5Z" fill="#43A583"/>
<path d="M77.3 19.4C77.6 18.5 78.1 17.5 78.3 16.5C78.6 14.8 77.5 13.2 75.9 12.8C74.3 12.4 72.7 13.2 72 14.8C71.6 15.9 71.1 16.9 70.5 17.8C69.9 18.5 69.1 19.1 68.3 19.5C66.3 20.3 64.3 20.5 62.2 20.1C61.9 20.1 61.5 20.1 61.2 20.2C61.3 20.5 61.3 20.9 61.5 21.2C62.8 23.2 64.7 24.3 66.9 24.5C71.3 24.8 74.9 23.3 77.3 19.4Z" fill="#43A583"/>
<path fill-rule="evenodd" clip-rule="evenodd" d="M47.7 19.2C45.5 12.8 47.7 6.5 53.5 2.9C56.1 1.2 59.1 0.299997 62.2 0.199997C63.8 0.0999972 65.4 0.399996 67 0.499996C70.2 0.699996 73.3 1.4 76.2 2.8C81.4 5.3 85.5 8.89999 87.5 14.6C89.2 19.4 88.6 24 85.3 28C83.1 30.7 80.2 32.4 76.9 33.3C70.1 35.1 63.7 33.8 58 30.8C53 27.8 49.4 24.3 47.7 19.2ZM67.7 5.3C63.4 4.7 59.1 5.2 55.4 8C52.4 10.3 51.4 13.9 52.7 17.6C53.8 20.7 56 23.1 58.7 24.9C63.3 27.9 68.4 29.3 73.9 28.2C75.6 27.9 77.3 27.2 78.7 26.3C82.4 24.1 83.6 20.3 82 16.3C81 13.6 79.2 11.5 76.9 9.7C76.1 9 75.2 8.4 74.3 7.8C74.3 7.73333 74.3 7.66666 74.3 7.59999C72.1 6.79999 70 5.6 67.7 5.3Z" fill="#43A583"/>
</svg>
