<svg width="560" height="420" viewBox="0 0 560 420" fill="none" xmlns="http://www.w3.org/2000/svg">
  <rect width="560" height="420" rx="28" fill="#0E1617"/>
  <rect x="34" y="42" width="492" height="336" rx="22" fill="#121E20" stroke="#FFFFFF" stroke-opacity="0.08"/>
  <rect x="34" y="42" width="492" height="36" rx="22" fill="#F4F4F0"/>
  <circle cx="62" cy="60" r="5" fill="#C7CDD0"/>
  <circle cx="80" cy="60" r="5" fill="#C7CDD0"/>
  <circle cx="98" cy="60" r="5" fill="#C7CDD0"/>
  <rect x="122" y="52" width="132" height="16" rx="8" fill="#DDE2E4"/>
  <rect x="68" y="104" width="180" height="242" rx="20" fill="#10191A" stroke="#FFFFFF" stroke-opacity="0.06"/>
  <rect x="92" y="128" width="88" height="12" rx="6" fill="#FFFFFF"/>
  <rect x="92" y="150" width="112" height="8" rx="4" fill="#FFFFFF" fill-opacity="0.42"/>
  <rect x="92" y="182" width="132" height="132" rx="20" fill="url(#paint0_linear_1_1)"/>
  <circle cx="158" cy="248" r="34" fill="#0B1112" fill-opacity="0.12"/>
  <rect x="274" y="104" width="218" height="114" rx="20" fill="#F5F8F8"/>
  <rect x="298" y="128" width="76" height="12" rx="6" fill="#0F1617" fill-opacity="0.86"/>
  <rect x="298" y="148" width="104" height="8" rx="4" fill="#0F1617" fill-opacity="0.26"/>
  <rect x="298" y="174" width="70" height="16" rx="8" fill="#17F2A6"/>
  <rect x="274" y="232" width="102" height="114" rx="20" fill="#10191A" stroke="#FFFFFF" stroke-opacity="0.06"/>
  <rect x="298" y="258" width="54" height="54" rx="16" fill="#17F2A6" fill-opacity="0.16"/>
  <path d="M312 286L324 274L336 286" stroke="#17F2A6" stroke-width="4" stroke-linecap="round" stroke-linejoin="round"/>
  <path d="M324 274V296" stroke="#17F2A6" stroke-width="4" stroke-linecap="round"/>
  <rect x="390" y="232" width="102" height="114" rx="20" fill="#10191A" stroke="#FFFFFF" stroke-opacity="0.06"/>
  <rect x="414" y="258" width="54" height="12" rx="6" fill="#FFFFFF"/>
  <rect x="414" y="278" width="44" height="8" rx="4" fill="#FFFFFF" fill-opacity="0.42"/>
  <rect x="414" y="298" width="62" height="18" rx="9" fill="#F5F8F8" fill-opacity="0.18"/>
  <defs>
    <linearGradient id="paint0_linear_1_1" x1="92" y1="182" x2="224" y2="314" gradientUnits="userSpaceOnUse">
      <stop stop-color="#17F2A6"/>
      <stop offset="1" stop-color="#43A583"/>
    </linearGradient>
  </defs>
</svg>
