<svg width="560" height="420" viewBox="0 0 560 420" fill="none" xmlns="http://www.w3.org/2000/svg">
  <rect width="560" height="420" rx="28" fill="#0E1617"/>
  <rect x="34" y="42" width="492" height="336" rx="22" fill="#121E20" stroke="#FFFFFF" stroke-opacity="0.08"/>
  <rect x="34" y="42" width="492" height="36" rx="22" fill="#F4F4F0"/>
  <circle cx="62" cy="60" r="5" fill="#C7CDD0"/>
  <circle cx="80" cy="60" r="5" fill="#C7CDD0"/>
  <circle cx="98" cy="60" r="5" fill="#C7CDD0"/>
  <rect x="122" y="52" width="132" height="16" rx="8" fill="#DDE2E4"/>
  <rect x="70" y="102" width="420" height="126" rx="22" fill="#10191A" stroke="#FFFFFF" stroke-opacity="0.06"/>
  <rect x="96" y="128" width="88" height="12" rx="6" fill="#FFFFFF"/>
  <rect x="96" y="150" width="132" height="9" rx="4.5" fill="#FFFFFF" fill-opacity="0.44"/>
  <path d="M96 196L138 170L178 184L220 134L260 152L302 112L344 126L390 82L438 106" stroke="#17F2A6" stroke-width="7" stroke-linecap="round" stroke-linejoin="round"/>
  <circle cx="220" cy="134" r="5" fill="#17F2A6"/>
  <circle cx="390" cy="82" r="5" fill="#17F2A6"/>
  <rect x="70" y="248" width="128" height="100" rx="20" fill="#10191A" stroke="#FFFFFF" stroke-opacity="0.06"/>
  <rect x="94" y="272" width="44" height="12" rx="6" fill="#FFFFFF"/>
  <rect x="94" y="292" width="78" height="8" rx="4" fill="#FFFFFF" fill-opacity="0.42"/>
  <rect x="94" y="314" width="64" height="18" rx="9" fill="#17F2A6" fill-opacity="0.16"/>
  <rect x="216" y="248" width="128" height="100" rx="20" fill="#10191A" stroke="#FFFFFF" stroke-opacity="0.06"/>
  <rect x="240" y="272" width="44" height="12" rx="6" fill="#FFFFFF"/>
  <rect x="240" y="292" width="78" height="8" rx="4" fill="#FFFFFF" fill-opacity="0.42"/>
  <rect x="240" y="314" width="84" height="18" rx="9" fill="#F4F7F7"/>
  <rect x="362" y="248" width="128" height="100" rx="20" fill="url(#paint0_linear_1_1)"/>
  <rect x="386" y="272" width="44" height="12" rx="6" fill="#073324" fill-opacity="0.28"/>
  <rect x="386" y="292" width="78" height="8" rx="4" fill="#073324" fill-opacity="0.18"/>
  <circle cx="426" cy="320" r="18" fill="#0B1112" fill-opacity="0.14"/>
  <path d="M418 320H434" stroke="#FFFFFF" stroke-width="3" stroke-linecap="round"/>
  <defs>
    <linearGradient id="paint0_linear_1_1" x1="362" y1="248" x2="490" y2="348" gradientUnits="userSpaceOnUse">
      <stop stop-color="#17F2A6"/>
      <stop offset="1" stop-color="#43A583"/>
    </linearGradient>
  </defs>
</svg>
