<svg width="560" height="420" viewBox="0 0 560 420" fill="none" xmlns="http://www.w3.org/2000/svg">
  <rect width="560" height="420" rx="28" fill="#0E1617"/>
  <rect x="34" y="42" width="492" height="336" rx="22" fill="#121E20" stroke="#FFFFFF" stroke-opacity="0.08"/>
  <rect x="34" y="42" width="492" height="36" rx="22" fill="#F4F4F0"/>
  <circle cx="62" cy="60" r="5" fill="#C7CDD0"/>
  <circle cx="80" cy="60" r="5" fill="#C7CDD0"/>
  <circle cx="98" cy="60" r="5" fill="#C7CDD0"/>
  <rect x="122" y="52" width="132" height="16" rx="8" fill="#DDE2E4"/>
  <rect x="70" y="102" width="198" height="246" rx="20" fill="#F5F8F8"/>
  <rect x="96" y="130" width="146" height="114" rx="18" fill="url(#paint0_linear_1_1)"/>
  <circle cx="169" cy="186" r="38" fill="#0B1112" fill-opacity="0.12"/>
  <rect x="112" y="268" width="82" height="10" rx="5" fill="#0F1617" fill-opacity="0.86"/>
  <rect x="112" y="286" width="116" height="8" rx="4" fill="#0F1617" fill-opacity="0.28"/>
  <rect x="112" y="314" width="118" height="16" rx="8" fill="#17F2A6"/>
  <rect x="290" y="102" width="200" height="110" rx="20" fill="#10191A" stroke="#FFFFFF" stroke-opacity="0.06"/>
  <rect x="314" y="126" width="88" height="12" rx="6" fill="#FFFFFF"/>
  <rect x="314" y="148" width="118" height="8" rx="4" fill="#FFFFFF" fill-opacity="0.42"/>
  <rect x="314" y="176" width="58" height="10" rx="5" fill="#17F2A6"/>
  <rect x="380" y="176" width="84" height="10" rx="5" fill="#FFFFFF" fill-opacity="0.16"/>
  <rect x="290" y="230" width="94" height="118" rx="20" fill="#10191A" stroke="#FFFFFF" stroke-opacity="0.06"/>
  <rect x="314" y="254" width="46" height="46" rx="14" fill="#17F2A6" fill-opacity="0.16"/>
  <path d="M326 276H348" stroke="#17F2A6" stroke-width="4" stroke-linecap="round"/>
  <path d="M337 265V287" stroke="#17F2A6" stroke-width="4" stroke-linecap="round"/>
  <rect x="396" y="230" width="94" height="118" rx="20" fill="#10191A" stroke="#FFFFFF" stroke-opacity="0.06"/>
  <rect x="420" y="256" width="48" height="12" rx="6" fill="#FFFFFF"/>
  <rect x="420" y="276" width="30" height="8" rx="4" fill="#FFFFFF" fill-opacity="0.42"/>
  <circle cx="444" cy="316" r="14" fill="#F4F7F7"/>
  <defs>
    <linearGradient id="paint0_linear_1_1" x1="96" y1="130" x2="242" y2="244" gradientUnits="userSpaceOnUse">
      <stop stop-color="#17F2A6"/>
      <stop offset="1" stop-color="#43A583"/>
    </linearGradient>
  </defs>
</svg>
