<svg width="560" height="420" viewBox="0 0 560 420" fill="none" xmlns="http://www.w3.org/2000/svg">
  <rect width="560" height="420" rx="28" fill="#0E1617"/>
  <rect x="34" y="42" width="492" height="336" rx="22" fill="#121E20" stroke="#FFFFFF" stroke-opacity="0.08"/>
  <rect x="34" y="42" width="492" height="36" rx="22" fill="#F4F4F0"/>
  <circle cx="62" cy="60" r="5" fill="#C7CDD0"/>
  <circle cx="80" cy="60" r="5" fill="#C7CDD0"/>
  <circle cx="98" cy="60" r="5" fill="#C7CDD0"/>
  <rect x="122" y="52" width="132" height="16" rx="8" fill="#DDE2E4"/>
  <rect x="70" y="102" width="420" height="118" rx="22" fill="url(#paint0_linear_1_1)"/>
  <path d="M122 196C154 140 234 126 278 162C320 196 392 200 438 146V220H122V196Z" fill="#0B1112" fill-opacity="0.1"/>
  <rect x="98" y="128" width="78" height="10" rx="5" fill="#073324" fill-opacity="0.3"/>
  <rect x="98" y="146" width="126" height="18" rx="9" fill="#FFFFFF"/>
  <rect x="98" y="174" width="102" height="10" rx="5" fill="#FFFFFF" fill-opacity="0.58"/>
  <rect x="70" y="242" width="132" height="106" rx="20" fill="#10191A" stroke="#FFFFFF" stroke-opacity="0.06"/>
  <rect x="94" y="266" width="56" height="12" rx="6" fill="#FFFFFF"/>
  <rect x="94" y="286" width="84" height="8" rx="4" fill="#FFFFFF" fill-opacity="0.42"/>
  <circle cx="136" cy="316" r="20" fill="#17F2A6" fill-opacity="0.16"/>
  <rect x="214" y="242" width="132" height="106" rx="20" fill="#F5F8F8"/>
  <rect x="238" y="266" width="56" height="12" rx="6" fill="#0F1617" fill-opacity="0.86"/>
  <rect x="238" y="286" width="84" height="8" rx="4" fill="#0F1617" fill-opacity="0.26"/>
  <path d="M266 322C284 296 314 296 326 312" stroke="#17F2A6" stroke-width="6" stroke-linecap="round"/>
  <rect x="358" y="242" width="132" height="106" rx="20" fill="#10191A" stroke="#FFFFFF" stroke-opacity="0.06"/>
  <rect x="382" y="266" width="56" height="12" rx="6" fill="#FFFFFF"/>
  <rect x="382" y="286" width="84" height="8" rx="4" fill="#FFFFFF" fill-opacity="0.42"/>
  <rect x="382" y="308" width="64" height="18" rx="9" fill="#17F2A6" fill-opacity="0.16"/>
  <defs>
    <linearGradient id="paint0_linear_1_1" x1="70" y1="102" x2="490" y2="220" gradientUnits="userSpaceOnUse">
      <stop stop-color="#17F2A6"/>
      <stop offset="1" stop-color="#43A583"/>
    </linearGradient>
  </defs>
</svg>
