<svg width="640" height="420" viewBox="0 0 640 420" fill="none" xmlns="http://www.w3.org/2000/svg">
  <rect width="640" height="420" rx="28" fill="#0D1617"/>
  <circle cx="530" cy="86" r="74" fill="#17F2A6" fill-opacity="0.12"/>
  <circle cx="128" cy="336" r="90" fill="#43A583" fill-opacity="0.12"/>
  <rect x="86" y="86" width="468" height="248" rx="24" fill="#121E20" stroke="#FFFFFF" stroke-opacity="0.08"/>
  <rect x="86" y="86" width="468" height="36" rx="24" fill="#F3F4F0"/>
  <circle cx="116" cy="104" r="5" fill="#C7CDD0"/>
  <circle cx="134" cy="104" r="5" fill="#C7CDD0"/>
  <circle cx="152" cy="104" r="5" fill="#C7CDD0"/>
  <rect x="176" y="96" width="184" height="16" rx="8" fill="#DDE2E4"/>
  <rect x="124" y="148" width="170" height="148" rx="18" fill="#0F1819" stroke="#FFFFFF" stroke-opacity="0.06"/>
  <rect x="148" y="174" width="72" height="12" rx="6" fill="#FFFFFF"/>
  <rect x="148" y="198" width="120" height="9" rx="4.5" fill="#FFFFFF" fill-opacity="0.44"/>
  <rect x="148" y="232" width="118" height="34" rx="12" fill="#17F2A6" fill-opacity="0.16"/>
  <path d="M166 249L178 261L244 195" stroke="#17F2A6" stroke-width="8" stroke-linecap="round" stroke-linejoin="round"/>
  <rect x="326" y="148" width="190" height="148" rx="18" fill="#131F21"/>
  <rect x="350" y="174" width="90" height="12" rx="6" fill="#FFFFFF"/>
  <rect x="350" y="198" width="136" height="9" rx="4.5" fill="#FFFFFF" fill-opacity="0.46"/>
  <rect x="350" y="224" width="142" height="46" rx="16" fill="#F5F8F8"/>
  <rect x="366" y="240" width="78" height="12" rx="6" fill="#0F1617" fill-opacity="0.78"/>
  <rect x="452" y="236" width="22" height="22" rx="11" fill="#17F2A6"/>
  <path d="M478 130L532 162L492 212" fill="#17F2A6"/>
  <path d="M492 212L486 172L532 162" fill="#43A583"/>
  <circle cx="493" cy="161" r="20" fill="#F5F8F8"/>
  <path d="M494 152L497 160L505 163L497 166L494 174L491 166L483 163L491 160L494 152Z" fill="#17F2A6"/>
  <rect x="186" y="314" width="118" height="16" rx="8" fill="#17F2A6" fill-opacity="0.16"/>
  <rect x="320" y="314" width="154" height="16" rx="8" fill="#FFFFFF" fill-opacity="0.08"/>
</svg>
